<?xml version="1.0" standalone="no"?>
<!DOCTYPE svg PUBLIC "-//W3C//DTD SVG 20010904//EN"
 "http://www.w3.org/TR/2001/REC-SVG-20010904/DTD/svg10.dtd">
<svg version="1.0" xmlns="http://www.w3.org/2000/svg"
 width="253.000000pt" height="253.000000pt" viewBox="0 0 253.000000 253.000000"
 preserveAspectRatio="xMidYMid meet">
<metadata>
Created by potrace 1.14, written by Peter Selinger 2001-2017
</metadata>
<g transform="translate(0.000000,253.000000) scale(0.100000,-0.100000)"
fill="#000000" stroke="none">
<path d="M1095 2519 c-418 -62 -764 -307 -953 -676 -65 -127 -116 -289 -130
-413 -8 -67 -7 -281 1 -330 14 -84 19 -109 38 -175 134 -459 496 -792 969
-891 119 -25 374 -26 485 -1 277 63 476 173 667 370 172 177 288 408 334 662
10 55 13 350 4 390 -5 22 -12 56 -15 75 -12 74 -69 229 -118 323 -179 339
-491 573 -872 653 -87 18 -326 26 -410 13z"/>
</g>
</svg>
