<?xml version="1.0" standalone="no"?>
<!DOCTYPE svg PUBLIC "-//W3C//DTD SVG 20010904//EN"
 "http://www.w3.org/TR/2001/REC-SVG-20010904/DTD/svg10.dtd">
<svg version="1.0" xmlns="http://www.w3.org/2000/svg"
 width="252.000000pt" height="252.000000pt" viewBox="0 0 252.000000 252.000000"
 preserveAspectRatio="xMidYMid meet">
<metadata>
Created by potrace 1.14, written by Peter Selinger 2001-2017
</metadata>
<g transform="translate(0.000000,252.000000) scale(0.100000,-0.100000)"
fill="#000000" stroke="none">
<path d="M1139 2516 c-2 -2 -24 -6 -49 -9 -182 -22 -393 -106 -556 -223 -65
-47 -202 -175 -251 -237 -31 -39 -114 -168 -130 -203 -10 -21 -20 -41 -23 -44
-15 -15 -75 -198 -96 -292 -26 -119 -26 -359 0 -488 28 -131 48 -192 99 -300
170 -360 494 -614 888 -696 120 -25 359 -25 484 0 376 75 719 345 880 691 51
110 52 111 74 190 37 132 44 180 47 330 2 112 -2 174 -15 245 -96 514 -478
907 -986 1015 -71 15 -354 32 -366 21z"/>
</g>
</svg>
